<svg width="46" height="46" viewBox="0 0 46 46" fill="none" xmlns="http://www.w3.org/2000/svg">
<path d="M23 0C10.35 0 0 10.3685 0 23.1386C0 34.6847 8.41799 44.2681 19.412 46V29.8353H13.57V23.1386H19.412V18.0351C19.412 12.239 22.839 9.05221 28.106 9.05221C30.613 9.05221 33.235 9.49097 33.235 9.49097V15.1948H30.337C27.485 15.1948 26.588 16.9729 26.588 18.7972V23.1386H32.982L31.947 29.8353H26.588V46C32.0078 45.1406 36.943 42.3641 40.5028 38.1718C44.0625 33.9795 46.0122 28.6476 45.9999 23.1386C45.9999 10.3685 35.65 0 23 0Z" fill="#4A47C2"/>
</svg>
