<svg version="1" xmlns="http://www.w3.org/2000/svg" width="682.667" height="682.667" viewBox="0 0 512.000000 512.000000"><path d="M236.5.6c-1.6.2-7.3.9-12.5 1.5-54.7 6.2-108.9 32.8-149.3 73.3C34.7 115.5 9.9 166 1.8 224c-1.7 12.5-1.7 51.5 0 64C10 346.4 35 397.1 75.5 437.4c40.2 40 90.5 64.7 148.5 72.8 12.5 1.7 51.5 1.7 64 0 58.1-8.2 108.7-33 149-73.2 40.2-40.2 65-90.9 73.2-149 1.7-12.5 1.7-51.5 0-64-8.1-57.8-32.8-108.3-72.5-148.2-39.8-40-89.4-64.9-145.9-73.4C282.1 1 243.1-.3 236.5.6zm82.3 97.8c7.3 7.4 8.2 8.7 8.2 12 0 2-.7 5.1-1.6 6.7-2 3.9-1.4 4.5 2.5 2.5 1.6-.9 4.7-1.6 6.8-1.6 3.5 0 4.8 1.1 24 20.3 25.5 25.4 24.7 21.9 9.5 44.9-5.9 9-11.2 16.9-11.6 17.7-1.1 1.6-2.5 2.6 18.7-11.7 9.3-6.1 17.7-11.2 18.9-11.2 4.1 0 9 3.5 17.8 12.6 8.7 9.2 9 9.6 9 14.2v4.6l-39 39.1-39 39-60-60-60-60 37.8-37.8c20.7-20.9 39.1-38.5 40.7-39.3 5.3-2.5 8.3-1.1 17.3 8zm-44.3 138.1l60 59.5-22 22c-28.5 28.4-24.8 27.8-45.9 7.2-16.5-16.3-19-17.7-28.2-17-8.3.7-12.3 4-20.7 17.1-21.6 33.8-42.9 64.6-48 69.5-6.4 5.9-12.6 9-20.7 10-17.3 2.3-33-6.3-40.4-21.8-2.8-5.8-3.1-7.5-3.1-16 0-8.8.3-10.1 3.3-16.2 2.2-4.5 5.2-8.4 9.3-12.2 5.3-5 28.2-20.6 67.2-45.9 12.1-7.9 14.8-10.8 16.8-18.1.8-2.8.7-5.2-.2-9-1.1-4.7-2.5-6.4-16-20.2-8.5-8.7-15.1-16.2-15.5-17.8-1.3-5.4.4-7.8 21.9-29.4 11.6-11.6 21.4-21.2 21.7-21.2.3.1 27.5 26.8 60.5 59.5z"/><path d="M137.1 353.2c-10.4 5.4-10.9 18.7-1 26 3.4 2.6 10.9 2.6 15.1.1 4.6-2.7 7-6.5 7.5-12 .4-3.9 0-5.5-1.9-8.2-5.3-7.7-12.3-9.8-19.7-5.9z"/></svg>